<mxfile host="app.diagrams.net" agent="Mozilla/5.0 (Windows NT 10.0; Win64; x64) AppleWebKit/537.36 (KHTML, like Gecko) Chrome/131.0.0.0 Safari/537.36 Edg/131.0.0.0" version="25.0.3">
  <diagram name="Page-1" id="52a04d89-c75d-2922-d76d-85b35f80e030">
    <mxGraphModel dx="1385" dy="1479" grid="1" gridSize="10" guides="1" tooltips="1" connect="1" arrows="1" fold="1" page="1" pageScale="1" pageWidth="1100" pageHeight="850" background="none" math="0" shadow="0">
      <root>
        <mxCell id="0" />
        <mxCell id="1" parent="0" />
        <mxCell id="G3cs9fjNqC67SN3GNpXM-1" value="Region" style="points=[[0,0],[0.25,0],[0.5,0],[0.75,0],[1,0],[1,0.25],[1,0.5],[1,0.75],[1,1],[0.75,1],[0.5,1],[0.25,1],[0,1],[0,0.75],[0,0.5],[0,0.25]];outlineConnect=0;gradientColor=none;html=1;whiteSpace=wrap;fontSize=12;fontStyle=0;container=1;pointerEvents=0;collapsible=0;recursiveResize=0;shape=mxgraph.aws4.group;grIcon=mxgraph.aws4.group_region;strokeColor=#00A4A6;fillColor=none;verticalAlign=top;align=left;spacingLeft=30;fontColor=#147EBA;dashed=1;" vertex="1" parent="1">
          <mxGeometry x="202" y="-120" width="538" height="770" as="geometry" />
        </mxCell>
        <mxCell id="G3cs9fjNqC67SN3GNpXM-7" value="VPC" style="sketch=0;outlineConnect=0;gradientColor=none;html=1;whiteSpace=wrap;fontSize=12;fontStyle=0;shape=mxgraph.aws4.group;grIcon=mxgraph.aws4.group_vpc;strokeColor=#879196;fillColor=none;verticalAlign=top;align=left;spacingLeft=30;fontColor=#879196;dashed=0;" vertex="1" parent="G3cs9fjNqC67SN3GNpXM-1">
          <mxGeometry x="41" y="30" width="449" height="720" as="geometry" />
        </mxCell>
        <mxCell id="G3cs9fjNqC67SN3GNpXM-12" value="agentictech-vpc" style="text;html=1;align=center;verticalAlign=middle;whiteSpace=wrap;rounded=0;" vertex="1" parent="G3cs9fjNqC67SN3GNpXM-1">
          <mxGeometry x="102.5" y="35" width="89" height="15" as="geometry" />
        </mxCell>
        <mxCell id="G3cs9fjNqC67SN3GNpXM-49" value="" style="outlineConnect=0;dashed=0;verticalLabelPosition=bottom;verticalAlign=top;align=center;html=1;shape=mxgraph.aws3.internet_gateway;fillColor=#F58536;gradientColor=none;" vertex="1" parent="G3cs9fjNqC67SN3GNpXM-1">
          <mxGeometry x="308" y="11" width="49.5" height="45" as="geometry" />
        </mxCell>
        <mxCell id="G3cs9fjNqC67SN3GNpXM-50" value="Internet Gateway" style="text;html=1;align=center;verticalAlign=middle;whiteSpace=wrap;rounded=0;" vertex="1" parent="G3cs9fjNqC67SN3GNpXM-1">
          <mxGeometry x="282" y="50" width="110" height="20" as="geometry" />
        </mxCell>
        <mxCell id="G3cs9fjNqC67SN3GNpXM-13" value="Availability zone" style="sketch=0;outlineConnect=0;gradientColor=none;html=1;whiteSpace=wrap;fontSize=12;fontStyle=0;shape=mxgraph.aws4.group;grIcon=mxgraph.aws4.group_availability_zone;strokeColor=#545B64;fillColor=none;verticalAlign=top;align=left;spacingLeft=30;fontColor=#545B64;dashed=1;" vertex="1" parent="G3cs9fjNqC67SN3GNpXM-1">
          <mxGeometry x="73" y="80" width="319" height="630" as="geometry" />
        </mxCell>
        <mxCell id="G3cs9fjNqC67SN3GNpXM-17" value="us-east-1a" style="text;html=1;align=center;verticalAlign=middle;whiteSpace=wrap;rounded=0;" vertex="1" parent="G3cs9fjNqC67SN3GNpXM-1">
          <mxGeometry x="191.5" y="77" width="60" height="30" as="geometry" />
        </mxCell>
        <mxCell id="G3cs9fjNqC67SN3GNpXM-77" value="agentictech-IGW" style="text;html=1;align=center;verticalAlign=middle;whiteSpace=wrap;rounded=0;" vertex="1" parent="G3cs9fjNqC67SN3GNpXM-1">
          <mxGeometry x="356" y="30" width="102" height="20" as="geometry" />
        </mxCell>
        <mxCell id="G3cs9fjNqC67SN3GNpXM-21" value="Public subnet" style="points=[[0,0],[0.25,0],[0.5,0],[0.75,0],[1,0],[1,0.25],[1,0.5],[1,0.75],[1,1],[0.75,1],[0.5,1],[0.25,1],[0,1],[0,0.75],[0,0.5],[0,0.25]];outlineConnect=0;gradientColor=none;html=1;whiteSpace=wrap;fontSize=12;fontStyle=0;container=1;pointerEvents=0;collapsible=0;recursiveResize=0;shape=mxgraph.aws4.group;grIcon=mxgraph.aws4.group_security_group;grStroke=0;strokeColor=#7AA116;fillColor=#F2F6E8;verticalAlign=top;align=left;spacingLeft=30;fontColor=#248814;dashed=0;" vertex="1" parent="1">
          <mxGeometry x="293" y="-10" width="290" height="310" as="geometry" />
        </mxCell>
        <mxCell id="G3cs9fjNqC67SN3GNpXM-22" value="agentictech-public-subnet-1a" style="text;html=1;align=center;verticalAlign=middle;whiteSpace=wrap;rounded=0;" vertex="1" parent="G3cs9fjNqC67SN3GNpXM-21">
          <mxGeometry x="110" width="160" height="30" as="geometry" />
        </mxCell>
        <mxCell id="G3cs9fjNqC67SN3GNpXM-33" value="" style="outlineConnect=0;dashed=0;verticalLabelPosition=bottom;verticalAlign=top;align=center;html=1;shape=mxgraph.aws3.ec2;fillColor=#F58534;gradientColor=none;" vertex="1" parent="G3cs9fjNqC67SN3GNpXM-21">
          <mxGeometry x="160" y="60" width="50" height="60" as="geometry" />
        </mxCell>
        <mxCell id="G3cs9fjNqC67SN3GNpXM-35" value="" style="outlineConnect=0;dashed=0;verticalLabelPosition=bottom;verticalAlign=top;align=center;html=1;shape=mxgraph.aws3.ec2;fillColor=#F58534;gradientColor=none;" vertex="1" parent="G3cs9fjNqC67SN3GNpXM-21">
          <mxGeometry x="170" y="160" width="50" height="60" as="geometry" />
        </mxCell>
        <mxCell id="G3cs9fjNqC67SN3GNpXM-41" value="vigil-linux&lt;span style=&quot;color: rgba(0, 0, 0, 0); font-family: monospace; font-size: 0px; text-align: start; text-wrap-mode: nowrap;&quot;&gt;%3CmxGraphModel%3E%3Croot%3E%3CmxCell%20id%3D%220%22%2F%3E%3CmxCell%20id%3D%221%22%20parent%3D%220%22%2F%3E%3CmxCell%20id%3D%222%22%20value%3D%22vigil-win-01%22%20style%3D%22text%3Bhtml%3D1%3Balign%3Dcenter%3BverticalAlign%3Dmiddle%3BwhiteSpace%3Dwrap%3Brounded%3D0%3B%22%20vertex%3D%221%22%20parent%3D%221%22%3E%3CmxGeometry%20x%3D%22520%22%20y%3D%22250%22%20width%3D%2280%22%20height%3D%2220%22%20as%3D%22geometry%22%2F%3E%3C%2FmxCell%3E%3C%2Froot%3E%3C%2FmxGraphModel%3E&lt;/span&gt;-04" style="text;html=1;align=center;verticalAlign=middle;whiteSpace=wrap;rounded=0;" vertex="1" parent="G3cs9fjNqC67SN3GNpXM-21">
          <mxGeometry x="155" y="230" width="80" height="20" as="geometry" />
        </mxCell>
        <mxCell id="G3cs9fjNqC67SN3GNpXM-40" value="vigil-linux&lt;span style=&quot;color: rgba(0, 0, 0, 0); font-family: monospace; font-size: 0px; text-align: start; text-wrap-mode: nowrap;&quot;&gt;%3CmxGraphModel%3E%3Croot%3E%3CmxCell%20id%3D%220%22%2F%3E%3CmxCell%20id%3D%221%22%20parent%3D%220%22%2F%3E%3CmxCell%20id%3D%222%22%20value%3D%22vigil-win-01%22%20style%3D%22text%3Bhtml%3D1%3Balign%3Dcenter%3BverticalAlign%3Dmiddle%3BwhiteSpace%3Dwrap%3Brounded%3D0%3B%22%20vertex%3D%221%22%20parent%3D%221%22%3E%3CmxGeometry%20x%3D%22520%22%20y%3D%22250%22%20width%3D%2280%22%20height%3D%2220%22%20as%3D%22geometry%22%2F%3E%3C%2FmxCell%3E%3C%2Froot%3E%3C%2FmxGraphModel%3E&lt;/span&gt;-03" style="text;html=1;align=center;verticalAlign=middle;whiteSpace=wrap;rounded=0;" vertex="1" parent="G3cs9fjNqC67SN3GNpXM-21">
          <mxGeometry x="30" y="230" width="80" height="20" as="geometry" />
        </mxCell>
        <mxCell id="G3cs9fjNqC67SN3GNpXM-39" value="vigil-win-04" style="text;html=1;align=center;verticalAlign=middle;whiteSpace=wrap;rounded=0;" vertex="1" parent="G3cs9fjNqC67SN3GNpXM-21">
          <mxGeometry x="155" y="130" width="80" height="20" as="geometry" />
        </mxCell>
        <mxCell id="G3cs9fjNqC67SN3GNpXM-24" value="&#xa;&lt;span style=&quot;color: rgb(0, 108, 224); font-family: &amp;quot;Amazon Ember&amp;quot;, &amp;quot;Helvetica Neue&amp;quot;, Roboto, Arial, sans-serif; font-size: 12px; font-style: normal; font-variant-ligatures: normal; font-variant-caps: normal; font-weight: 400; letter-spacing: normal; orphans: 2; text-align: start; text-indent: 0px; text-transform: none; widows: 2; word-spacing: 0px; -webkit-text-stroke-width: 0px; white-space: nowrap; background-color: rgb(255, 255, 255); text-decoration-thickness: initial; text-decoration-style: initial; text-decoration-color: initial; display: inline !important; float: none;&quot;&gt;12.0.1.0/24&lt;/span&gt;&#xa;&#xa;" style="text;html=1;align=center;verticalAlign=middle;whiteSpace=wrap;rounded=0;" vertex="1" parent="1">
          <mxGeometry x="323" y="10" width="60" height="30" as="geometry" />
        </mxCell>
        <mxCell id="G3cs9fjNqC67SN3GNpXM-32" value="" style="outlineConnect=0;dashed=0;verticalLabelPosition=bottom;verticalAlign=top;align=center;html=1;shape=mxgraph.aws3.ec2;fillColor=#F58534;gradientColor=none;" vertex="1" parent="1">
          <mxGeometry x="333" y="60" width="50" height="60" as="geometry" />
        </mxCell>
        <mxCell id="G3cs9fjNqC67SN3GNpXM-34" value="" style="outlineConnect=0;dashed=0;verticalLabelPosition=bottom;verticalAlign=top;align=center;html=1;shape=mxgraph.aws3.ec2;fillColor=#F58534;gradientColor=none;" vertex="1" parent="1">
          <mxGeometry x="333" y="150" width="50" height="60" as="geometry" />
        </mxCell>
        <mxCell id="G3cs9fjNqC67SN3GNpXM-38" value="vigil-win-03" style="text;html=1;align=center;verticalAlign=middle;whiteSpace=wrap;rounded=0;" vertex="1" parent="1">
          <mxGeometry x="318" y="120" width="80" height="20" as="geometry" />
        </mxCell>
        <mxCell id="G3cs9fjNqC67SN3GNpXM-45" value="Amazon SNS" style="sketch=0;outlineConnect=0;fontColor=#232F3E;gradientColor=none;strokeColor=#ffffff;fillColor=#232F3E;dashed=0;verticalLabelPosition=middle;verticalAlign=bottom;align=center;html=1;whiteSpace=wrap;fontSize=10;fontStyle=1;spacing=3;shape=mxgraph.aws4.productIcon;prIcon=mxgraph.aws4.sns;" vertex="1" parent="1">
          <mxGeometry x="110" y="150" width="80" height="100" as="geometry" />
        </mxCell>
        <mxCell id="G3cs9fjNqC67SN3GNpXM-46" value="Amazon CloudWatch" style="sketch=0;outlineConnect=0;fontColor=#232F3E;gradientColor=none;strokeColor=#ffffff;fillColor=#232F3E;dashed=0;verticalLabelPosition=middle;verticalAlign=bottom;align=center;html=1;whiteSpace=wrap;fontSize=10;fontStyle=1;spacing=3;shape=mxgraph.aws4.productIcon;prIcon=mxgraph.aws4.cloudwatch;" vertex="1" parent="1">
          <mxGeometry x="38" y="20" width="82" height="110" as="geometry" />
        </mxCell>
        <mxCell id="G3cs9fjNqC67SN3GNpXM-47" value="AWS Lambda" style="sketch=0;outlineConnect=0;fontColor=#232F3E;gradientColor=none;strokeColor=#ffffff;fillColor=#232F3E;dashed=0;verticalLabelPosition=middle;verticalAlign=bottom;align=center;html=1;whiteSpace=wrap;fontSize=10;fontStyle=1;spacing=3;shape=mxgraph.aws4.productIcon;prIcon=mxgraph.aws4.lambda;" vertex="1" parent="1">
          <mxGeometry x="40" y="270" width="80" height="100" as="geometry" />
        </mxCell>
        <mxCell id="G3cs9fjNqC67SN3GNpXM-54" value="" style="endArrow=classic;startArrow=classic;html=1;rounded=0;" edge="1" parent="1" target="G3cs9fjNqC67SN3GNpXM-7">
          <mxGeometry width="50" height="50" relative="1" as="geometry">
            <mxPoint x="118" y="70" as="sourcePoint" />
            <mxPoint x="168" y="20" as="targetPoint" />
          </mxGeometry>
        </mxCell>
        <mxCell id="G3cs9fjNqC67SN3GNpXM-55" value="monitors instances, subnets" style="text;html=1;align=center;verticalAlign=middle;whiteSpace=wrap;rounded=0;" vertex="1" parent="1">
          <mxGeometry x="130" y="51" width="90" height="19" as="geometry" />
        </mxCell>
        <mxCell id="G3cs9fjNqC67SN3GNpXM-58" value="" style="endArrow=classic;html=1;rounded=0;" edge="1" parent="1" source="G3cs9fjNqC67SN3GNpXM-46">
          <mxGeometry width="50" height="50" relative="1" as="geometry">
            <mxPoint x="116.61538461538453" y="131" as="sourcePoint" />
            <mxPoint x="123" y="151" as="targetPoint" />
            <Array as="points">
              <mxPoint x="120" y="141" />
            </Array>
          </mxGeometry>
        </mxCell>
        <mxCell id="G3cs9fjNqC67SN3GNpXM-59" value="" style="endArrow=classic;html=1;rounded=0;" edge="1" parent="1" source="G3cs9fjNqC67SN3GNpXM-46" target="G3cs9fjNqC67SN3GNpXM-47">
          <mxGeometry width="50" height="50" relative="1" as="geometry">
            <mxPoint x="40" y="190" as="sourcePoint" />
            <mxPoint x="90" y="140" as="targetPoint" />
          </mxGeometry>
        </mxCell>
        <mxCell id="G3cs9fjNqC67SN3GNpXM-60" value="Triggers lambda function" style="text;html=1;align=center;verticalAlign=middle;whiteSpace=wrap;rounded=0;" vertex="1" parent="1">
          <mxGeometry x="20" y="195" width="70" height="10" as="geometry" />
        </mxCell>
        <mxCell id="G3cs9fjNqC67SN3GNpXM-61" value="send email notification" style="text;html=1;align=center;verticalAlign=middle;whiteSpace=wrap;rounded=0;" vertex="1" parent="1">
          <mxGeometry x="130" y="115" width="60" height="30" as="geometry" />
        </mxCell>
        <mxCell id="G3cs9fjNqC67SN3GNpXM-63" value="" style="shape=image;verticalLabelPosition=bottom;labelBackgroundColor=default;verticalAlign=top;aspect=fixed;imageAspect=0;image=data:image/png,iVBORw0KGgoAAAANSUhEUgAAAP0AAACUCAMAAABvEN9cAAAAkFBMVEX///8pPkCBtaElOz3g4uIAAAAcNTciOTvS1dXx8vKwtbXY2tssQUMAHyM2SEqboqIAGx9SYGLGysq9wsJeamtAUVIADRMAJyoQLjCnrKxveXrp6+v4+PgAFhq3vLxxrZaNlJW308h6g4SWwLAAAAiCi4yjx7nm7+xKWVqLuqjN4NgjLzLc6eRmcnNlqI5eYmLL5K/pAAAJNElEQVR4nO2a2XbquBKGTWzkAduABzzJYAgEJ73Z5/3f7khVkiwDye7V54KzVtd3k9jWUL+qVBoSxyEIgiAIgiAIgiAIgiAIgiAIgiAIgiAIgiAIgiAIgiAIgiAIgiAIgiCI/w945/FX2/AyslNRtPtXW/EigrRmrI6bV9vxEsK2XghY6r3aklfgMVeqdxf/Sucr9Qt3/WpLXkF3g8h34+DVlryEnAn5fnJ5tR2vgUdFlZTr7tV2vAovCFavtoEgvoF36221XFbjJQutXXmYt+55uRmHlXkZ7iOJ5/CwOY1j6zkZvNiHdnsevGs8p4NfosDqaX9Kd8td3Ebz/X8YXMp+eY7b3LTU5dBy53CvuY1lMQSzTrA9fvx4O/w+vH186eagVpRNZcDCPZ8/R5FuzLv0lVyZXVbv2Fpb1TWLvvblVq3a3XRj3l+bJEnOkaiSiE3sMndWS/EiWdp7+bA4i1ebJXeCShbfDfrLaqixTV/8HKaEEObjrmb4PtUjuSr7JOnjPGj7hAmqXRrN8yf/9XE4vCGHw/EKLxtpUF9PI7WUNiwnD4BNy5MqkJXVwuBvRuwhKDa+eVtXarfmpXL/4raqSiJGpZBWs63ll1Uv3sSV2OIEsSzO1GaHN3HimjbdxI/0QF96Zt6zzQktWG3FS7ds09oYt7vZKfR6fLM5vB1le6F0ZLwzzs/7WFpjPJCB6bX6vhpN69DDACYF5eyt268t9QumBkaqX53lbxsr1E6yqlt1d+r5YI0ndJWsoa+w7Wfvk6Iz6kVAutanqpx8eH0/vN3xIX0wSHl1oYtBKwt/oUO/BW/dcITDC7qxTjaJsJqN4MQQxbvVru8r6L6KLPWKWKp3RnS+sarbQHk52DP1Q2Jkq0Zc9MhF9dWbvopJvSqpx42N+sR0/bzXLngXGgPoZ6eCsVOBrYOhAwWJiuUVNly3+yw6bWoVEXg4q6th5Ym5CjOyXM3Ux3XSb8S8F72B83vjFBhOt/Lu1DfKif7m7Ma7BGY/k5UaV36omexrDX2hcZP66lyliZoc7KS6eSZeeF94DvbXiZpug2qEqWBYuyBGWZtB1DFwAg9bLJOBd6oRZ1lWMt2tUV8v2yjIBtlIiM4ftXposLrwuXpvRDOSeB9yLlJqJWa4DL8QEke9RXtW0Jcr41Srr/uLx3mo0pOfon8+TNgfJObhl+Pse4gWtKbUUbPEZ+gNrRPkEKf1PJmqTKaDbC81szEw6t3a3rrjAC5V6QHCpoKBs9Tj60U9qEr8UqXwSyNHeuoLq/hro75WU1TUqM2Ucq6/tV6Z6vnXu378rQe6zkFerIMVgz2To+HGeonKQD1rbfkrGDA2rWIyU7jSIpXz49llVbfFRIJP0F11CefqPRhQEWNm3eXqV9A0nYE5DJNMI6jev5gaHTrlJgdKq33XH7+0848OX8so8W/acsRPTW8654k+Ypz3YxOYAYik0W66znIka2UZ6W9UX92d1xuISeahKyHsMsuRUn2W+rNwMng3Nu8L7PNFcgP1fmktJjCHfRmDHEP98DF9/KW9LzoTU0eo7eSCNmXOOtBO8K2xxqTIkkW7zvjUi0hcGw2GYBtq9Xd3NR46X84GjrNYLdmT+oZN6WVGNvrzvnABSPMn6vfglTg3nv60d39favL/cjpM2o3MqNAaOFjaF8G4lNOuoWsrdQNTV+UJJstpttZrZMg9V+9gqJWeShGuGzl36qGEG0cP6qeJaSNLPqrPofdaNPKBrv+yWwrVbDjqXHJTF4tsC4L8knMV+HatdaU3e36dytn4VH3Mim/VBxBg/uDwk72XeFCf5g/q94tn6hdx86N6tdxdZ00dDzoVqKoBzjd/vYfcEueY0NxZ1uLe5ay3mr6c3ai+Xt7xn+479ZjRWdFBSp3m1YP6x6t99L3f72ack7+j/nOu/suoRwVsUDG5UlPztMcIfHRBkcDxQ+wsG0yMZm2y+U49qmYNdMe2On9a8x7vth/bhJpC42qOOGv9Wf3Ht+qhpBtj9ze1+3UXWP/ZHStfl2rXFzYyGln7eKD8Vr0DEa+7Mxon9Wj4rE3MsHiWSbP7Bp3/yfe4Y3Ex5+21d/A5eaJLSisgbMsggC3BLEz5H9RnoBOad6c/Xtyv97Ob/aaRZnAM0icXn38j6/2yy3O1/YNVsDEHKjcN5e7XrHzT+QdNNPl/jVuZHM9FdTEtzt4Q/qweBxuwlNh7PVzySn2qDaP4fPG0nX5p5cN89Uf1R72zsbiq9R4WgtAkU9yWrk1uPc+u11fjtkGZ4QnCQ0Rho/aYqiDPix3eBnyvPjfrRDJtGy31Ac4rlg5Z5/AuP7l+XBWZ2SyMWqWYd7jn/0n91aztEyrlq4XAbPJ6EOfp/T5u+TShOMKx4tRkWdTCeDHRN1cpYLxkXhc0bcrEBib8Ub05TtTt9M4+46nDll+Xt7Yt0hq+pELJWkXFJRBh4TU3WST4g3pH+flzkq/Ffyqn7uZqW30lMbM9E2a4jC3SNMYjaHWSRixjqMrSsizxMqOWR4Ef1O/xiiJeWicGWz3fqujw5TUVBiJLV+aD75fjdhSdyYwrNwY/qtcbuzcV/Fe98Te5AHfw5qSb4SNcuhi6El3iuq42CLrLlqq076vMWV1+9r2zwWsfO6nMb7ZS6wYN+/oLZ3hc6758vPhg8sz5o3rtfJnjj8fj53TNows3cHxbLPUhaTH51iBOg7OrI6azcuAyf3rt1y68/0l9hHcq9s3bXL1zm/UlAkuvPVv7g4hEuCv4Wf3VutayLjoOljdgHurLEHUU29z9bSUq5L8YILW/Nbm3O5VMfahZqfK/t5Cvdk/Vc1k8KeyxDeSrejoS7remr9odB8uIMTYf4i02vxor8WTvBHIopGYuzvPPI0b69ePzPg0OvSg8ZXh+FpWr4v6vanx/uRVIu7Z3Aqv1Sb0etAndqRUUj9t1kCDT2Ww98VpgOtuYvm6nZnbYDSP94aJv2r2LrHuyGsygiHIQP76/v1u7veuHeLaPPV4h60+CpOnFs/+i6Tzk/h+M+MPrEPjmH5Hkp3n9J8VDaPLJHza7+w8PlbGqp/u4Xmd7PX73jPXnxnT/3n+hIgiCIAiCIAiCIAiCIAiCIAiCIAiCIAiCIAiCIAiCIAiCIAiCIAiCIP45/wWXuLIy8WeHlQAAAABJRU5ErkJggg==;" vertex="1" parent="1">
          <mxGeometry x="37.95" y="425" width="82.05" height="48" as="geometry" />
        </mxCell>
        <mxCell id="G3cs9fjNqC67SN3GNpXM-64" value="" style="endArrow=classic;html=1;rounded=0;" edge="1" parent="1">
          <mxGeometry width="50" height="50" relative="1" as="geometry">
            <mxPoint x="79" y="380" as="sourcePoint" />
            <mxPoint x="78.5" y="440" as="targetPoint" />
          </mxGeometry>
        </mxCell>
        <mxCell id="G3cs9fjNqC67SN3GNpXM-65" value="creates incident&amp;nbsp;" style="text;html=1;align=center;verticalAlign=middle;whiteSpace=wrap;rounded=0;" vertex="1" parent="1">
          <mxGeometry x="80" y="400" width="60" height="30" as="geometry" />
        </mxCell>
        <mxCell id="G3cs9fjNqC67SN3GNpXM-67" value="" style="image;aspect=fixed;perimeter=ellipsePerimeter;html=1;align=center;shadow=0;dashed=0;spacingTop=3;image=img/lib/active_directory/internet_cloud.svg;" vertex="1" parent="1">
          <mxGeometry x="293" y="-200" width="50" height="31.5" as="geometry" />
        </mxCell>
        <mxCell id="G3cs9fjNqC67SN3GNpXM-68" value="" style="edgeStyle=none;orthogonalLoop=1;jettySize=auto;html=1;rounded=0;" edge="1" parent="1">
          <mxGeometry width="100" relative="1" as="geometry">
            <mxPoint x="140" y="-184.75" as="sourcePoint" />
            <mxPoint x="290" y="-184.75" as="targetPoint" />
            <Array as="points" />
          </mxGeometry>
        </mxCell>
        <mxCell id="G3cs9fjNqC67SN3GNpXM-69" value="User" style="html=1;whiteSpace=wrap;strokeColor=none;fillColor=#0079D6;labelPosition=center;verticalLabelPosition=middle;verticalAlign=top;align=center;fontSize=12;outlineConnect=0;spacingTop=-6;fontColor=#FFFFFF;sketch=0;shape=mxgraph.sitemap.user;" vertex="1" parent="1">
          <mxGeometry x="70" y="-200" width="70" height="50" as="geometry" />
        </mxCell>
        <mxCell id="G3cs9fjNqC67SN3GNpXM-70" value="" style="endArrow=classic;html=1;rounded=0;" edge="1" parent="1">
          <mxGeometry width="50" height="50" relative="1" as="geometry">
            <mxPoint x="535" y="-183" as="sourcePoint" />
            <mxPoint x="534.8101604278074" y="-112" as="targetPoint" />
          </mxGeometry>
        </mxCell>
        <mxCell id="G3cs9fjNqC67SN3GNpXM-71" value="" style="endArrow=none;html=1;rounded=0;" edge="1" parent="1">
          <mxGeometry width="50" height="50" relative="1" as="geometry">
            <mxPoint x="339.5" y="-184.42" as="sourcePoint" />
            <mxPoint x="536.5" y="-184.67" as="targetPoint" />
          </mxGeometry>
        </mxCell>
      </root>
    </mxGraphModel>
  </diagram>
</mxfile>
